<mxfile modified="2020-07-24T10:04:36.893Z" host="app.diagrams.net" agent="5.0 (Macintosh)" etag="QsGGVFR0Wyl9TkeXasg8" version="13.5.1" type="github">
  <diagram id="oyVTfbrthm_-wxzk1ZXb" name="Page-1">
    <mxGraphModel dx="1353" dy="831" grid="1" gridSize="10" guides="1" tooltips="1" connect="1" arrows="1" fold="1" page="1" pageScale="1" pageWidth="1169" pageHeight="827" math="0" shadow="0">
      <root>
        <mxCell id="0" />
        <mxCell id="1" parent="0" />
        <mxCell id="Yy4u_d4SeMjxJnoAWtQS-13" value="Uses" style="edgeStyle=orthogonalEdgeStyle;rounded=0;orthogonalLoop=1;jettySize=auto;html=1;" edge="1" parent="1" source="Yy4u_d4SeMjxJnoAWtQS-2" target="Yy4u_d4SeMjxJnoAWtQS-10">
          <mxGeometry relative="1" as="geometry" />
        </mxCell>
        <mxCell id="Yy4u_d4SeMjxJnoAWtQS-2" value="&lt;div&gt;&lt;font size=&quot;1&quot;&gt;&lt;b style=&quot;font-size: 14px&quot;&gt;JAC Staff&lt;/b&gt;&lt;/font&gt;&lt;/div&gt;&lt;div&gt;[Person]&lt;b&gt;&lt;br&gt;&lt;/b&gt;&lt;/div&gt;&lt;div&gt;&lt;b&gt;&lt;br&gt;&lt;/b&gt;&lt;/div&gt;&lt;div&gt;Member of JAC team&lt;/div&gt;&lt;div&gt;&lt;b&gt;&lt;br&gt;&lt;/b&gt;&lt;/div&gt;" style="html=1;dashed=0;whitespace=wrap;fillColor=#DAE8FC;strokeColor=#6C8EBF;shape=mxgraph.c4.person;align=center;points=[[0.5,0,0],[1,0.5,0],[1,0.75,0],[0.75,1,0],[0.5,1,0],[0.25,1,0],[0,0.75,0],[0,0.5,0]];" vertex="1" parent="1">
          <mxGeometry x="230" y="120" width="150" height="140" as="geometry" />
        </mxCell>
        <mxCell id="Yy4u_d4SeMjxJnoAWtQS-7" style="edgeStyle=orthogonalEdgeStyle;rounded=0;orthogonalLoop=1;jettySize=auto;html=1;exitX=0.5;exitY=1;exitDx=0;exitDy=0;exitPerimeter=0;" edge="1" parent="1" source="Yy4u_d4SeMjxJnoAWtQS-2" target="Yy4u_d4SeMjxJnoAWtQS-2">
          <mxGeometry relative="1" as="geometry" />
        </mxCell>
        <mxCell id="Yy4u_d4SeMjxJnoAWtQS-15" value="&lt;div&gt;Uses&lt;/div&gt;" style="edgeStyle=orthogonalEdgeStyle;rounded=0;orthogonalLoop=1;jettySize=auto;html=1;fontColor=#4D4D4D;" edge="1" parent="1" source="Yy4u_d4SeMjxJnoAWtQS-8" target="Yy4u_d4SeMjxJnoAWtQS-11">
          <mxGeometry relative="1" as="geometry" />
        </mxCell>
        <mxCell id="Yy4u_d4SeMjxJnoAWtQS-8" value="&lt;div&gt;&lt;font size=&quot;1&quot;&gt;&lt;b style=&quot;font-size: 14px&quot;&gt;Candidate&lt;/b&gt;&lt;/font&gt;&lt;/div&gt;&lt;div&gt;[Person]&lt;b&gt;&lt;br&gt;&lt;/b&gt;&lt;/div&gt;&lt;div&gt;&lt;b&gt;&lt;br&gt;&lt;/b&gt;&lt;/div&gt;&lt;div&gt;Interested in becomming&lt;/div&gt;&lt;div&gt; a judge&lt;b&gt;&lt;br&gt;&lt;/b&gt;&lt;/div&gt;" style="html=1;dashed=0;whitespace=wrap;fillColor=#DAE8FC;strokeColor=#6C8EBF;shape=mxgraph.c4.person;align=center;points=[[0.5,0,0],[1,0.5,0],[1,0.75,0],[0.75,1,0],[0.5,1,0],[0.25,1,0],[0,0.75,0],[0,0.5,0]];" vertex="1" parent="1">
          <mxGeometry x="435" y="120" width="150" height="140" as="geometry" />
        </mxCell>
        <mxCell id="Yy4u_d4SeMjxJnoAWtQS-16" value="&lt;div&gt;Uses&lt;/div&gt;" style="edgeStyle=orthogonalEdgeStyle;rounded=0;orthogonalLoop=1;jettySize=auto;html=1;fontColor=#4D4D4D;" edge="1" parent="1" source="Yy4u_d4SeMjxJnoAWtQS-9" target="Yy4u_d4SeMjxJnoAWtQS-12">
          <mxGeometry relative="1" as="geometry" />
        </mxCell>
        <mxCell id="Yy4u_d4SeMjxJnoAWtQS-9" value="&lt;div&gt;&lt;font size=&quot;1&quot;&gt;&lt;b style=&quot;font-size: 14px&quot;&gt;Assessor&lt;/b&gt;&lt;/font&gt;&lt;/div&gt;&lt;div&gt;[Person]&lt;b&gt;&lt;br&gt;&lt;/b&gt;&lt;/div&gt;&lt;div&gt;&lt;b&gt;&lt;br&gt;&lt;/b&gt;&lt;/div&gt;&lt;div&gt;Candidate-nominated &lt;br&gt;&lt;/div&gt;&lt;div&gt;referee&lt;b&gt;&lt;br&gt;&lt;/b&gt;&lt;/div&gt;" style="html=1;dashed=0;whitespace=wrap;fillColor=#DAE8FC;strokeColor=#6C8EBF;shape=mxgraph.c4.person;align=center;points=[[0.5,0,0],[1,0.5,0],[1,0.75,0],[0.75,1,0],[0.5,1,0],[0.25,1,0],[0,0.75,0],[0,0.5,0]];" vertex="1" parent="1">
          <mxGeometry x="640" y="120" width="150" height="140" as="geometry" />
        </mxCell>
        <mxCell id="Yy4u_d4SeMjxJnoAWtQS-10" value="&lt;font size=&quot;1&quot;&gt;&lt;b style=&quot;font-size: 14px&quot;&gt;Admin&lt;/b&gt;&lt;/font&gt;&lt;div&gt;[Software System]&lt;/div&gt;&lt;br&gt;&lt;div&gt;Create an exercise and process applications&lt;br&gt;&lt;/div&gt;" style="rounded=1;whiteSpace=wrap;html=1;labelBackgroundColor=none;fillColor=#dae8fc;fontColor=#000000;align=center;arcSize=10;strokeColor=#6c8ebf;points=[[0.25,0,0],[0.5,0,0],[0.75,0,0],[1,0.25,0],[1,0.5,0],[1,0.75,0],[0.75,1,0],[0.5,1,0],[0.25,1,0],[0,0.75,0],[0,0.5,0],[0,0.25,0]];" vertex="1" parent="1">
          <mxGeometry x="225" y="340" width="160" height="110.00000000000001" as="geometry" />
        </mxCell>
        <mxCell id="Yy4u_d4SeMjxJnoAWtQS-19" value="" style="edgeStyle=orthogonalEdgeStyle;rounded=0;orthogonalLoop=1;jettySize=auto;html=1;fontColor=#4D4D4D;entryX=0.5;entryY=0;entryDx=0;entryDy=0;entryPerimeter=0;dashed=1;" edge="1" parent="1">
          <mxGeometry relative="1" as="geometry">
            <mxPoint x="510" y="451" as="sourcePoint" />
            <mxPoint x="305" y="541" as="targetPoint" />
            <Array as="points">
              <mxPoint x="510" y="490" />
              <mxPoint x="305" y="490" />
            </Array>
          </mxGeometry>
        </mxCell>
        <mxCell id="Yy4u_d4SeMjxJnoAWtQS-11" value="&lt;font size=&quot;1&quot;&gt;&lt;b style=&quot;font-size: 14px&quot;&gt;Apply&lt;/b&gt;&lt;/font&gt;&lt;div&gt;[Software System]&lt;/div&gt;&lt;br&gt;&lt;div&gt;Apply to become a judge&lt;/div&gt;&lt;div&gt;&lt;br&gt;&lt;/div&gt;" style="rounded=1;whiteSpace=wrap;html=1;labelBackgroundColor=none;fillColor=#dae8fc;fontColor=#000000;align=center;arcSize=10;strokeColor=#6c8ebf;points=[[0.25,0,0],[0.5,0,0],[0.75,0,0],[1,0.25,0],[1,0.5,0],[1,0.75,0],[0.75,1,0],[0.5,1,0],[0.25,1,0],[0,0.75,0],[0,0.5,0],[0,0.25,0]];" vertex="1" parent="1">
          <mxGeometry x="430" y="340" width="160" height="110.00000000000001" as="geometry" />
        </mxCell>
        <mxCell id="Yy4u_d4SeMjxJnoAWtQS-12" value="&lt;font size=&quot;1&quot;&gt;&lt;b style=&quot;font-size: 14px&quot;&gt;Assessment&lt;/b&gt;&lt;/font&gt;&lt;div&gt;[Software System]&lt;/div&gt;&lt;br&gt;&lt;div&gt;Provide a reference&lt;/div&gt;&lt;div&gt;&lt;br&gt;&lt;/div&gt;" style="rounded=1;whiteSpace=wrap;html=1;labelBackgroundColor=none;fillColor=#dae8fc;fontColor=#000000;align=center;arcSize=10;strokeColor=#6c8ebf;points=[[0.25,0,0],[0.5,0,0],[0.75,0,0],[1,0.25,0],[1,0.5,0],[1,0.75,0],[0.75,1,0],[0.5,1,0],[0.25,1,0],[0,0.75,0],[0,0.5,0],[0,0.25,0]];" vertex="1" parent="1">
          <mxGeometry x="635" y="340" width="160" height="110.00000000000001" as="geometry" />
        </mxCell>
        <mxCell id="Yy4u_d4SeMjxJnoAWtQS-14" value="&lt;b&gt;Gov.UK Notify&lt;br&gt;&lt;/b&gt;&lt;div&gt;[Software System]&lt;/div&gt;&lt;br&gt;&lt;div&gt;Send email, sms and mail&lt;br&gt;&lt;/div&gt;" style="rounded=1;whiteSpace=wrap;html=1;labelBackgroundColor=none;align=center;arcSize=10;strokeColor=#6c8ebf;points=[[0.25,0,0],[0.5,0,0],[0.75,0,0],[1,0.25,0],[1,0.5,0],[1,0.75,0],[0.75,1,0],[0.5,1,0],[0.25,1,0],[0,0.75,0],[0,0.5,0],[0,0.25,0]];fillColor=#E6E6E6;fontColor=#4D4D4D;" vertex="1" parent="1">
          <mxGeometry x="225" y="540" width="160" height="110.00000000000001" as="geometry" />
        </mxCell>
        <mxCell id="Yy4u_d4SeMjxJnoAWtQS-22" value="" style="endArrow=none;html=1;fontColor=#4D4D4D;entryX=0.5;entryY=1;entryDx=0;entryDy=0;entryPerimeter=0;rounded=0;dashed=1;" edge="1" parent="1" target="Yy4u_d4SeMjxJnoAWtQS-12">
          <mxGeometry width="50" height="50" relative="1" as="geometry">
            <mxPoint x="510" y="490" as="sourcePoint" />
            <mxPoint x="715" y="470" as="targetPoint" />
            <Array as="points">
              <mxPoint x="715" y="490" />
            </Array>
          </mxGeometry>
        </mxCell>
        <mxCell id="Yy4u_d4SeMjxJnoAWtQS-24" value="Sends email using" style="edgeStyle=orthogonalEdgeStyle;rounded=0;orthogonalLoop=1;jettySize=auto;html=1;fontColor=#4D4D4D;dashed=1;" edge="1" parent="1">
          <mxGeometry x="0.3333" relative="1" as="geometry">
            <mxPoint x="305" y="451" as="sourcePoint" />
            <mxPoint x="305" y="541" as="targetPoint" />
            <mxPoint as="offset" />
          </mxGeometry>
        </mxCell>
        <mxCell id="Yy4u_d4SeMjxJnoAWtQS-25" value="" style="endArrow=classic;html=1;fontColor=#4D4D4D;edgeStyle=orthogonalEdgeStyle;rounded=0;exitX=0;exitY=0.5;exitDx=0;exitDy=0;exitPerimeter=0;entryX=0.5;entryY=0;entryDx=0;entryDy=0;entryPerimeter=0;dashed=1;" edge="1" parent="1" source="Yy4u_d4SeMjxJnoAWtQS-14" target="Yy4u_d4SeMjxJnoAWtQS-9">
          <mxGeometry width="50" height="50" relative="1" as="geometry">
            <mxPoint x="560" y="450" as="sourcePoint" />
            <mxPoint x="720" y="50" as="targetPoint" />
            <Array as="points">
              <mxPoint x="150" y="595" />
              <mxPoint x="150" y="70" />
              <mxPoint x="715" y="70" />
            </Array>
          </mxGeometry>
        </mxCell>
        <mxCell id="Yy4u_d4SeMjxJnoAWtQS-26" value="" style="endArrow=classic;html=1;dashed=1;fontColor=#4D4D4D;rounded=0;entryX=0.5;entryY=0;entryDx=0;entryDy=0;entryPerimeter=0;" edge="1" parent="1" target="Yy4u_d4SeMjxJnoAWtQS-8">
          <mxGeometry width="50" height="50" relative="1" as="geometry">
            <mxPoint x="510" y="70" as="sourcePoint" />
            <mxPoint x="610" y="60" as="targetPoint" />
          </mxGeometry>
        </mxCell>
        <mxCell id="Yy4u_d4SeMjxJnoAWtQS-27" value="" style="endArrow=classic;html=1;dashed=1;fontColor=#4D4D4D;rounded=0;entryX=0.5;entryY=0;entryDx=0;entryDy=0;entryPerimeter=0;" edge="1" parent="1">
          <mxGeometry width="50" height="50" relative="1" as="geometry">
            <mxPoint x="305" y="70" as="sourcePoint" />
            <mxPoint x="305" y="120" as="targetPoint" />
          </mxGeometry>
        </mxCell>
        <mxCell id="Yy4u_d4SeMjxJnoAWtQS-28" value="&lt;b&gt;Sentry&lt;br&gt;&lt;/b&gt;&lt;div&gt;[Software System]&lt;/div&gt;&lt;br&gt;&lt;div&gt;Application monitoring&lt;br&gt;&lt;/div&gt;" style="rounded=1;whiteSpace=wrap;html=1;labelBackgroundColor=none;align=center;arcSize=10;strokeColor=#6c8ebf;points=[[0.25,0,0],[0.5,0,0],[0.75,0,0],[1,0.25,0],[1,0.5,0],[1,0.75,0],[0.75,1,0],[0.5,1,0],[0.25,1,0],[0,0.75,0],[0,0.5,0],[0,0.25,0]];fillColor=#E6E6E6;fontColor=#4D4D4D;" vertex="1" parent="1">
          <mxGeometry x="430" y="540" width="160" height="110.00000000000001" as="geometry" />
        </mxCell>
        <mxCell id="Yy4u_d4SeMjxJnoAWtQS-29" value="Logs errors to" style="endArrow=classic;html=1;dashed=1;fontColor=#4D4D4D;rounded=0;entryX=0.5;entryY=0;entryDx=0;entryDy=0;entryPerimeter=0;" edge="1" parent="1">
          <mxGeometry x="-0.2" width="50" height="50" relative="1" as="geometry">
            <mxPoint x="510" y="490" as="sourcePoint" />
            <mxPoint x="510" y="540" as="targetPoint" />
            <mxPoint as="offset" />
          </mxGeometry>
        </mxCell>
        <mxCell id="Yy4u_d4SeMjxJnoAWtQS-33" value="&lt;div&gt;Uses&lt;/div&gt;" style="edgeStyle=orthogonalEdgeStyle;rounded=0;orthogonalLoop=1;jettySize=auto;html=1;dashed=1;endArrow=classic;endFill=1;fontColor=#4D4D4D;" edge="1" parent="1" source="Yy4u_d4SeMjxJnoAWtQS-30" target="Yy4u_d4SeMjxJnoAWtQS-31">
          <mxGeometry relative="1" as="geometry" />
        </mxCell>
        <mxCell id="Yy4u_d4SeMjxJnoAWtQS-30" value="&lt;font style=&quot;font-size: 14px&quot;&gt;&lt;b&gt;Google Tag Manager&lt;br&gt;&lt;/b&gt;&lt;/font&gt;&lt;div&gt;&lt;font style=&quot;font-size: 12px&quot;&gt;[&lt;/font&gt;Software System]&lt;/div&gt;&lt;br&gt;&lt;div&gt;Tag management system&lt;br&gt;&lt;/div&gt;" style="rounded=1;whiteSpace=wrap;html=1;labelBackgroundColor=none;align=center;arcSize=10;strokeColor=#6c8ebf;points=[[0.25,0,0],[0.5,0,0],[0.75,0,0],[1,0.25,0],[1,0.5,0],[1,0.75,0],[0.75,1,0],[0.5,1,0],[0.25,1,0],[0,0.75,0],[0,0.5,0],[0,0.25,0]];fillColor=#E6E6E6;fontColor=#4D4D4D;" vertex="1" parent="1">
          <mxGeometry x="635" y="540" width="160" height="110.00000000000001" as="geometry" />
        </mxCell>
        <mxCell id="Yy4u_d4SeMjxJnoAWtQS-31" value="&lt;b&gt;Google Analytics&lt;br&gt;&lt;/b&gt;&lt;div&gt;[Software System]&lt;/div&gt;&lt;br&gt;&lt;div&gt;Web analytics&lt;br&gt;&lt;/div&gt;" style="rounded=1;whiteSpace=wrap;html=1;labelBackgroundColor=none;align=center;arcSize=10;strokeColor=#6c8ebf;points=[[0.25,0,0],[0.5,0,0],[0.75,0,0],[1,0.25,0],[1,0.5,0],[1,0.75,0],[0.75,1,0],[0.5,1,0],[0.25,1,0],[0,0.75,0],[0,0.5,0],[0,0.25,0]];fillColor=#E6E6E6;fontColor=#4D4D4D;" vertex="1" parent="1">
          <mxGeometry x="635" y="700" width="160" height="110.00000000000001" as="geometry" />
        </mxCell>
        <mxCell id="Yy4u_d4SeMjxJnoAWtQS-32" value="Uses" style="endArrow=classic;html=1;dashed=1;fontColor=#4D4D4D;rounded=0;entryX=0.5;entryY=0;entryDx=0;entryDy=0;entryPerimeter=0;" edge="1" parent="1">
          <mxGeometry x="-0.2" width="50" height="50" relative="1" as="geometry">
            <mxPoint x="715" y="491" as="sourcePoint" />
            <mxPoint x="715" y="541" as="targetPoint" />
            <mxPoint as="offset" />
          </mxGeometry>
        </mxCell>
      </root>
    </mxGraphModel>
  </diagram>
</mxfile>
